<svg xmlns="http://www.w3.org/2000/svg" width="232" height="30" viewBox="0 0 232 30" fill="none">
<path d="M211.232 1.75392H198.764V29.9955H211.232C214.703 29.9904 218.031 28.5061 220.486 25.8681C222.941 23.2301 224.322 19.6536 224.327 15.9229C224.341 14.0661 224.013 12.2246 223.361 10.5049C222.709 8.78528 221.746 7.22151 220.529 5.90401C219.311 4.5865 217.862 3.54139 216.267 2.82906C214.671 2.11673 212.96 1.75131 211.232 1.75392ZM211.77 24.9834H202.8V6.86247H211.77C214.006 6.86247 216.15 7.81705 217.732 9.51621C219.313 11.2154 220.201 13.5199 220.201 15.9229C220.201 18.3259 219.313 20.6305 217.732 22.3296C216.15 24.0288 214.006 24.9834 211.77 24.9834Z" fill="#103FB8"/>
<path d="M15.7864 29.9952C13.9028 26.718 6.18897 13.6093 4.30537 10.3321V29.9952H0V1.65723H4.12598L15.6967 21.4167V1.65723H19.8227V29.9952H15.7864Z" fill="#0887FF"/>
<path d="M37.1335 1.65744C34.5296 1.67647 31.9892 2.52362 29.8328 4.09206C27.6763 5.66049 26.0003 7.87998 25.0161 10.4706C24.0319 13.0613 23.7835 15.9071 24.3024 18.6493C24.8212 21.3914 26.084 23.9071 27.9315 25.879C29.779 27.8509 32.1285 29.1909 34.6837 29.7298C37.2389 30.2688 39.8854 29.9826 42.2894 28.9074C44.6935 27.8322 46.7475 26.0161 48.1924 23.6882C49.6372 21.3603 50.4083 18.6247 50.4084 15.8264C50.406 13.9583 50.0604 12.1091 49.3914 10.3849C48.7223 8.66066 47.743 7.0954 46.5096 5.77893C45.2762 4.46245 43.813 3.42069 42.204 2.71341C40.595 2.00614 38.8719 1.64728 37.1335 1.65744ZM37.1335 25.5616C35.9438 25.5616 34.7658 25.3098 33.6667 24.8206C32.5676 24.3313 31.5689 23.6142 30.7276 22.7102C29.8864 21.8062 29.2191 20.733 28.7638 19.5519C28.3086 18.3708 28.0743 17.1049 28.0743 15.8264C28.0743 14.548 28.3086 13.2821 28.7638 12.1009C29.2191 10.9198 29.8864 9.84663 30.7276 8.94263C31.5689 8.03864 32.5676 7.32155 33.6667 6.83232C34.7658 6.34308 35.9438 6.09127 37.1335 6.09127C38.3232 6.09127 39.5012 6.34308 40.6003 6.83232C41.6994 7.32155 42.6981 8.03864 43.5393 8.94263C44.3805 9.84663 45.0478 10.9198 45.5031 12.1009C45.9584 13.2821 46.1927 14.548 46.1927 15.8264C46.1927 17.1049 45.9584 18.3708 45.5031 19.5519C45.0478 20.733 44.3805 21.8062 43.5393 22.7102C42.6981 23.6142 41.6994 24.3313 40.6003 24.8206C39.5012 25.3098 38.3232 25.5616 37.1335 25.5616Z" fill="#0887FF"/>
<path d="M54.4446 6.28398V1.94653H73.5497V6.28398H66.0153V29.9954H61.8893V6.28398H54.4446Z" fill="#0887FF"/>
<path d="M77.6758 29.8991V1.75391H81.8018V29.9955H77.6758V29.8991Z" fill="#0887FF"/>
<path d="M166.564 29.8991V1.75391H170.69V29.9955H166.564V29.8991Z" fill="#103FB8"/>
<path d="M158.313 1.65747C158.313 1.65747 147.37 17.3687 147.28 17.3687L136.247 1.65747H132.121V21.417L120.551 1.65747H116.425V29.9955H120.64V10.3324C122.524 13.6096 130.238 26.7183 132.121 29.9955H136.337V9.85043L145.307 22.9592H149.433L158.402 9.85043V29.8991H162.528V1.65747H158.313Z" fill="#103FB8"/>
<path d="M190.513 29.9955L178.942 10.3324V29.9955H174.816V1.65747H178.942L190.513 21.417V1.65747H194.639V29.9955H190.513Z" fill="#103FB8"/>
<path d="M96.961 28.1641C95.4305 28.2037 93.9263 27.7322 92.6556 26.8147L92.5659 26.911H92.2968C91.5291 26.9383 90.7752 26.6868 90.1568 26.1971C89.5385 25.7075 89.0916 25.0082 88.8884 24.2122L88.7987 23.4411V22.7664C88.0743 21.6389 87.5847 20.3566 87.3636 19.0072C87.1834 18.64 86.9399 18.3129 86.646 18.0434C86.1982 17.4025 85.9474 16.6276 85.9285 15.8264C85.9242 15.2645 86.0439 14.7095 86.2778 14.2069C86.5116 13.7042 86.853 13.2683 87.2739 12.9348H87.3636L87.2739 13.6095V14.5734C87.2739 17.6578 88.6193 20.3567 91.3999 22.5736C92.9077 23.5806 94.6475 24.1148 96.4228 24.1158C99.5621 24.1158 102.163 22.5736 104.226 19.4892C104.85 18.4185 105.191 17.1857 105.213 15.9228C105.178 15.0684 105.027 14.2242 104.764 13.4168C105.666 14.9427 106.133 16.7181 106.11 18.5253C106.11 22.0916 104.585 24.8869 101.446 27.1038C100.035 27.7854 98.5079 28.1464 96.961 28.1641Z" fill="#0887FF"/>
<path d="M96.7815 23.4411H96.6021C95.1481 23.4278 93.7188 23.0348 92.4376 22.296C91.1563 21.5572 90.0613 20.4947 89.2471 19.2001C88.1912 17.5209 87.6288 15.5398 87.6326 13.5132C87.6467 11.8459 88.0806 10.2138 88.8883 8.79018V8.21186C88.9128 7.51192 89.1305 6.83564 89.5139 6.26917C89.8973 5.70271 90.4289 5.2717 91.041 5.03106C91.3506 4.88207 91.6891 4.81593 92.0277 4.83828H92.5658L94.27 3.87441C95.0773 3.58524 95.7949 3.29608 96.4227 3.1033C96.7262 2.64327 97.1304 2.27069 97.5998 2.01851C98.0691 1.76634 98.589 1.64234 99.1136 1.65749C99.6443 1.68185 100.165 1.82269 100.643 2.07134C101.121 2.31998 101.547 2.67118 101.894 3.1033L102.791 3.29608V3.39247C102.025 3.21202 101.243 3.11514 100.459 3.1033C97.4094 3.1033 94.8082 4.64551 92.7452 7.63353C91.8206 9.22439 91.3239 11.0593 91.3101 12.9349C91.3265 14.5234 91.6927 16.0852 92.3786 17.4924C93.0646 18.8997 94.0508 20.1124 95.2567 21.0314C96.3974 21.9486 97.7788 22.4547 99.2033 22.4772C100.035 22.4312 100.854 22.2357 101.625 21.8989C100.583 22.6747 99.3838 23.1705 98.1269 23.3447L96.7815 23.4411Z" fill="#0887FF"/>
<path d="M94.0904 19.6821C92.6277 17.9 91.8291 15.6002 91.848 13.2241C91.8455 11.9241 92.0835 10.6366 92.548 9.43624C93.0125 8.23592 93.6944 7.14676 94.5539 6.23203C95.4135 5.3173 96.4336 4.59523 97.5551 4.10778C98.6765 3.62033 99.877 3.3772 101.087 3.39253C102.668 3.39408 104.219 3.86074 105.571 4.74196H106.199C107.545 4.74196 108.531 5.51306 109.249 7.15165C109.417 7.57708 109.479 8.04216 109.428 8.50108V8.88663C110.128 10.1088 110.643 11.4427 110.953 12.8385C111.354 13.1483 111.684 13.5526 111.917 14.0204C112.15 14.4882 112.281 15.0071 112.299 15.5374V15.8265C112.303 16.3885 112.183 16.9435 111.949 17.4461C111.715 17.9488 111.374 18.3847 110.953 18.7182L110.863 19.0073H110.774C110.873 18.4021 110.933 17.7902 110.953 17.176C110.953 13.8024 109.518 11.1035 106.737 8.88663C105.257 7.89304 103.55 7.35926 101.804 7.34442C100.278 7.34535 98.7763 7.7504 97.4308 8.52376C96.0854 9.29711 94.938 10.4149 94.0904 11.7783C93.4494 12.8464 93.0784 14.0755 93.014 15.3446V15.8265C92.9994 17.1995 93.3749 18.5445 94.0904 19.6821Z" fill="#103FB8"/>
<path d="M99.1137 29.9953H98.8446C98.3408 29.9645 97.8487 29.8197 97.4005 29.5706C96.9523 29.3215 96.558 28.9735 96.2435 28.5495L95.6156 28.4531V28.3567C96.0884 28.4624 96.5683 28.5269 97.0507 28.5495H97.6786C100.369 28.5495 102.702 27.2001 104.765 24.5976C105.89 22.8712 106.514 20.8252 106.558 18.718C106.558 15.3444 105.123 12.5491 102.163 10.3322C101.286 9.70663 100.257 9.3715 99.2034 9.36835H98.7549C97.7059 9.39979 96.6838 9.73261 95.795 10.3322H95.7053C97.3071 8.87302 99.346 8.08562 101.446 8.11531C102.993 8.11216 104.514 8.53595 105.865 9.34607C107.216 10.1562 108.35 11.3255 109.16 12.7419C110.091 14.2221 110.591 15.9672 110.595 17.7541V18.236C110.556 19.869 110.123 21.4632 109.339 22.8626V23.2482C109.362 24.0613 109.125 24.8583 108.668 25.507C108.211 26.1557 107.562 26.617 106.828 26.8145C106.512 26.9427 106.178 27.0081 105.841 27.0073H105.572L104.137 27.7784C103.317 28.1494 102.478 28.4712 101.625 28.7423C101.334 29.156 100.953 29.4865 100.515 29.705C100.077 29.9235 99.5958 30.0232 99.1137 29.9953Z" fill="#103FB8"/>
<path d="M226.57 1.77853H228.299C228.84 1.77853 229.237 1.90314 229.49 2.15236C229.75 2.40158 229.88 2.76031 229.88 3.22854C229.88 3.65146 229.779 3.96865 229.575 4.18011C229.371 4.39157 229.114 4.51618 228.805 4.55394L229.975 6.59302H229.111L227.994 4.62191H227.393V6.59302H226.57V1.77853ZM227.393 3.87425H227.994C228.12 3.87425 228.247 3.87047 228.373 3.86292C228.5 3.84782 228.612 3.81761 228.71 3.7723C228.816 3.72698 228.9 3.65901 228.963 3.56839C229.027 3.47776 229.058 3.35315 229.058 3.19456C229.058 3.03596 229.027 2.91135 228.963 2.82073C228.9 2.7301 228.816 2.66213 228.71 2.61682C228.612 2.5715 228.5 2.54507 228.373 2.53752C228.247 2.52997 228.12 2.52619 227.994 2.52619H227.393V3.87425ZM224.156 4.2141C224.156 3.63258 224.258 3.08883 224.462 2.58283C224.673 2.06929 224.954 1.62371 225.305 1.2461C225.664 0.860944 226.078 0.558858 226.549 0.339846C227.027 0.113282 227.537 0 228.078 0C228.619 0 229.125 0.113282 229.596 0.339846C230.074 0.558858 230.488 0.860944 230.84 1.2461C231.198 1.62371 231.479 2.06929 231.683 2.58283C231.894 3.08883 231.999 3.63258 231.999 4.2141C231.999 4.79561 231.894 5.34314 231.683 5.85669C231.479 6.36268 231.198 6.80826 230.84 7.19342C230.488 7.57102 230.074 7.87311 229.596 8.09967C229.125 8.31868 228.619 8.42819 228.078 8.42819C227.537 8.42819 227.027 8.31868 226.549 8.09967C226.078 7.87311 225.664 7.57102 225.305 7.19342C224.954 6.80826 224.673 6.36268 224.462 5.85669C224.258 5.34314 224.156 4.79561 224.156 4.2141ZM224.852 4.2141C224.852 4.68988 224.936 5.13923 225.105 5.56215C225.274 5.98507 225.502 6.35513 225.79 6.67232C226.085 6.98196 226.43 7.2274 226.823 7.40865C227.217 7.5899 227.635 7.68053 228.078 7.68053C228.521 7.68053 228.939 7.5899 229.332 7.40865C229.726 7.2274 230.067 6.98196 230.355 6.67232C230.65 6.35513 230.882 5.98507 231.051 5.56215C231.219 5.13923 231.304 4.68988 231.304 4.2141C231.304 3.73831 231.219 3.28896 231.051 2.86604C230.882 2.44312 230.65 2.07684 230.355 1.7672C230.067 1.45001 229.726 1.20079 229.332 1.01954C228.939 0.838288 228.521 0.747662 228.078 0.747662C227.635 0.747662 227.217 0.838288 226.823 1.01954C226.43 1.20079 226.085 1.45001 225.79 1.7672C225.502 2.07684 225.274 2.44312 225.105 2.86604C224.936 3.28896 224.852 3.73831 224.852 4.2141Z" fill="#103FB8"/>
</svg>